<svg width="250" height="250" viewBox="0 -16 544 544" xmlns="http://www.w3.org/2000/svg"><path fill="#ff4742" d="M383.215 43.082c6.628-11.479 21.306-15.412 32.785-8.785 48.293 27.883 84.065 69.124 105.343 116.361a254.376 254.376 0 0 1 22.7 105.505 254.375 254.375 0 0 1-22.587 104.928c-21.264 47.342-57.077 88.68-105.456 116.611-11.479 6.628-26.157 2.695-32.784-8.784-6.628-11.479-2.695-26.157 8.784-32.785 32.428-18.722 57.907-44.857 75.533-75.029.189-.371.39-.739.6-1.104a210.506 210.506 0 0 0 9.564-18.645 209.068 209.068 0 0 0 18.338-85.187 209.059 209.059 0 0 0-18.455-85.784A210.49 210.49 0 0 0 468.134 152a24.344 24.344 0 0 1-.596-1.096C449.912 120.729 424.431 94.591 392 75.867c-11.479-6.628-15.412-21.306-8.785-32.785ZM176 480H0V32l132.857.43c42.92.139 80.533 28.751 92.123 70.077l46.321 165.173c2.851 10.165-4.751 20.244-15.405 20.32H240v64c0 17.636-14.267 31.939-32 32h-32v96Zm192-362.564c-11.479-6.627-26.157-2.694-32.785 8.785-6.627 11.479-2.694 26.157 8.785 32.784 17.397 10.044 31.08 24.051 40.567 40.222.137.259.28.517.428.773a113.19 113.19 0 0 1 5.106 9.943 112.576 112.576 0 0 1 9.918 46.103 112.572 112.572 0 0 1-9.887 45.942A113.209 113.209 0 0 1 384.995 312a23.69 23.69 0 0 0-.43.776c-9.487 16.17-23.169 30.176-40.565 40.219-11.479 6.627-15.412 21.306-8.785 32.785 6.628 11.479 21.306 15.412 32.785 8.784 30.226-17.451 52.605-43.275 65.896-72.851a158.979 158.979 0 0 0 14.131-65.664 158.993 158.993 0 0 0-14.165-65.837c-13.296-29.545-35.662-55.34-65.862-72.776Zm-48 83.138c-11.479-6.627-26.157-2.694-32.785 8.785-6.627 11.479-2.694 26.157 8.785 32.784a15.928 15.928 0 0 1 5.74 5.653l.117.204a16.078 16.078 0 0 1 2.146 8.049 16.092 16.092 0 0 1-1.392 6.475c-.224.499-.475.992-.755 1.476l-.119.21a15.925 15.925 0 0 1-5.737 5.646c-11.479 6.628-15.412 21.306-8.785 32.785 6.628 11.479 21.306 15.412 32.785 8.785 12.103-6.988 21.061-17.332 26.375-29.178a63.585 63.585 0 0 0 5.636-26.188 63.594 63.594 0 0 0-5.674-26.392c-5.319-11.811-14.263-22.123-26.337-29.094ZM176 160c0-17.673-14.327-32-32-32-17.673 0-32 14.327-32 32 0 17.673 14.327 32 32 32 17.673 0 32-14.327 32-32Z"/></svg>